[img]http://i.imgrz.com/yiV3R.jpg[/img]


[code]

The.Bourne.Legacy.2012.1080p.TS.NEW.SOURCE.XVID.5.1.AC3-26K


 
http://www.imdb.com/title/tt1194173/



Plot:
An expansion of the universe from Robert Ludlum's novels, centered on a new hero whose 
stakes have been triggered by the events of the previous three films.



Sources - audio-MATiNE 1080p .....Thanks :P
          VIDEO-MATiNE       ......Thanks :P

Video
ID                                       : 0
Format                                   : MPEG-4 Visual
Format profile                           : Simple@L5
Format settings, BVOP                    : No
Format settings, QPel                    : No
Format settings, GMC                     : No warppoints
Format settings, Matrix                  : Default (H.263)
Codec ID                                 : XVID
Codec ID/Hint                            : XviD
Duration                                 : 2h 5mn
Bit rate                                 : 3 262 Kbps
Width                                    : 1 280 pixels
Height                                   : 588 pixels
Display aspect ratio                     : 2.2:1
Frame rate                               : 25.000 fps
Color space                              : YUV
Chroma subsampling                       : 4:2:0
Bit depth                                : 8 bits
Scan type                                : Progressive
Compression mode                         : Lossy
Bits/(Pixel*Frame)                       : 0.173
Stream size                              : 2.85 GiB (88%)
Writing library                          : XviD 64

Audio
ID                                       : 1
Format                                   : AC-3
Format/Info                              : Audio Coding 3
Codec ID                                 : 2000
Duration                                 : 2h 5mn
Bit rate mode                            : Constant
Bit rate                                 : 448 Kbps
Channel(s)                               : 6 channels
Sampling rate                            : 48.0 KHz
Compression mode                         : Lossy
Stream size                              : 401 MiB (12%)
Alignment                                : Aligned on interleaves
Interleave, duration                     : 7511320 ms (187 783.00 video frames)



Notes -

Didnt need much work.. grain removal, denoise and slight brightness adjustment.. then just muxed over the matine line
to the encode.. Fix the AR to.. was a lil off.. 

[/code]

Screens:
[IMG]http://i.imgur.com/57kZc.png[/IMG]
[IMG]http://i.imgur.com/v4sQe.png[/IMG]
[IMG]http://i.imgur.com/VDMFe.png[/IMG]
[IMG]http://i.imgur.com/NuqcF.png[/IMG]
[IMG]http://img401.imageshack.us/img401/8149/vlcsnap2012090110h37m09.png[/IMG]
[IMG]http://img39.imageshack.us/img39/1968/vlcsnap2012090110h37m20.png[/IMG]
[IMG]http://img571.imageshack.us/img571/342/vlcsnap2012090110h37m32.png[/IMG]
[IMG]http://img402.imageshack.us/img402/656/vlcsnap2012090110h37m45.png[/IMG]
[IMG]http://img39.imageshack.us/img39/179/vlcsnap2012090110h38m26.png[/IMG]

Greetz:
XtremeEncode|FYA|ILLUMANTI|CM8|RX|VISION|HDSCENE|xTriLL|DTRG|CRYS|REMIXHD|BIDA|RX|REFILL|INSPiRAL|AXED|HOPE|Anonymous|GooN|NOIR|Blackjesus|Gabroo Punjab Deh|UNiQUE|DQ1|RESiSTANCE|HS|LEGION

To all the people who have helped me  you know who you are

Anything to offer email us @: 26k@hushmail.me